<?xml version="1.0" encoding="UTF-8"?>
<svg width="20px" height="22px" viewBox="0 0 20 22" version="1.1" xmlns="http://www.w3.org/2000/svg" xmlns:xlink="http://www.w3.org/1999/xlink">
    <!-- Generator: Sketch 51 (57462) - http://www.bohemiancoding.com/sketch -->
    <title>Shape</title>
    <desc>Created with Sketch.</desc>
    <defs></defs>
    <g id="Page-1" stroke="none" stroke-width="1" fill="none" fill-rule="evenodd">
        <g id="Edit-placement" transform="translate(-270.000000, -400.000000)" fill="#14B9BE">
            <g id="Group-2" transform="translate(127.000000, 357.000000)">
                <g id="Group-4" transform="translate(1.000000, 26.000000)">
                    <g id="Group-6">
                        <g id="Others-33" transform="translate(142.000000, 17.000000)">
                            <path d="M11.000005,19.3031129 L18.000005,15.4054729 L18.000005,7.72932287 L11.000005,11.5905029 L11.000005,19.3031129 Z M9.000005,11.5885629 L2.00000498,7.70156287 L2.00000498,15.4212129 L9.000005,19.3050779 L9.00000498,11.5885779 L9.000005,11.5885629 Z M10.000005,2.14771287 L3.059305,6.00193287 L10.010005,9.86078287 L16.966955,6.01653287 L9.999955,2.14771287 L10.000005,2.14771287 Z M0.514355,5.12584287 L9.514355,0.125842875 C9.8163775,-0.041947625 10.18362,-0.041947625 10.48564,0.125842875 L19.48564,5.12584287 C19.803105,5.30221237 19.999995,5.63683287 19.999995,5.99999787 L19.999995,15.9999979 C19.999995,16.3631649 19.803103,16.6977879 19.48564,16.8741529 L10.48564,21.8741529 C10.1836175,22.0419429 9.816375,22.0419429 9.514355,21.8741529 L0.514355,16.8741529 C0.19689,16.6977834 0,16.3631629 0,15.9999979 L0,5.99999787 C0,5.63683087 0.196892,5.30220787 0.514355,5.12584287 Z" id="Shape"></path>
                        </g>
                    </g>
                </g>
            </g>
        </g>
    </g>
</svg>