<?xml version="1.0" encoding="UTF-8"?>
<svg width="18px" height="14px" viewBox="0 0 18 14" version="1.1" xmlns="http://www.w3.org/2000/svg" xmlns:xlink="http://www.w3.org/1999/xlink">
    <!-- Generator: Sketch 51 (57462) - http://www.bohemiancoding.com/sketch -->
    <title>Group 20</title>
    <desc>Created with Sketch.</desc>
    <defs></defs>
    <g id="Page-1" stroke="none" stroke-width="1" fill="none" fill-rule="evenodd">
        <g id="App-info" transform="translate(-289.000000, -612.000000)" fill="#000000" fill-rule="nonzero">
            <g id="Group-6" transform="translate(266.000000, 587.000000)">
                <g id="File" transform="translate(23.000000, 25.000000)">
                    <g id="Users">
                        <g id="Group-16">
                            <g id="Group-20">
                                <path d="M9.52098786,4.40100104 C9.51010864,4.46427195 9.51010864,4.46427195 9.49917052,4.52673496 C9.45504692,4.77768794 9.41114338,5.0109255 9.38160799,5.16229326 C9.0793885,6.71656493 8.01010312,7.857136 6.4857088,7.857136 C4.95106451,7.857136 3.84392066,6.68916007 3.58908643,5.15853571 C3.55960096,5.00373697 3.51586527,4.76683532 3.47192765,4.51419397 C3.46263344,4.4605894 3.46263344,4.4605894 3.45337459,4.40646404 C3.37935255,3.97212883 3.3428538,3.71717434 3.34404145,3.59157615 C3.25920024,1.85233132 4.73618628,0.42857 6.4857088,0.42857 L6.571423,0.42857 C8.27299268,0.42857 9.66550193,1.85749613 9.62848161,3.55800344 C9.62653504,3.73958532 9.59003018,3.99740017 9.52098786,4.40100104 Z M7.6285638,3.5428536 L7.62887615,3.51786141 C7.64343794,2.93539008 7.15069619,2.42857 6.571423,2.42857 L6.4857088,2.42857 C5.84190928,2.42857 5.31448829,2.93698483 5.3428538,3.5428536 C5.3428538,3.55017098 5.37738158,3.79135767 5.42494732,4.07045665 C5.43360027,4.12104032 5.43360027,4.12104032 5.44235115,4.17151163 C5.48412773,4.41172693 5.52610624,4.63911053 5.55781892,4.80702461 C5.66883374,5.47311348 6.03285508,5.857136 6.4857088,5.857136 C6.92916965,5.857136 7.28227938,5.48048562 7.41850201,4.77991324 C7.44598462,4.63906485 7.48779528,4.41694572 7.52938588,4.18039919 C7.53958277,4.12216827 7.53958277,4.12216827 7.54962439,4.06376813 C7.59656502,3.7893671 7.6285638,3.56125082 7.6285638,3.5428536 Z" id="Shape"></path>
                                <path d="M10.6592069,10.3786577 C10.6414395,10.1032637 10.3553963,9.86982611 9.8117579,9.76279023 L6.48611083,9.32303525 L3.23293144,9.75584738 C2.74558343,9.84287381 2.38851438,10.1301707 2.36797396,10.3116067 L2.28679935,11.285702 L10.7117793,11.285702 L10.6592069,10.3786577 Z M0.113200252,13.285702 L0.203454042,12.2026565 L0.377544465,10.1181297 C0.513468291,8.89481524 1.60765075,8.01443855 2.92497708,7.7801919 L6.48516263,7.30550049 L6.6167991,7.32290697 L10.1328701,7.78963995 C11.5327825,8.06059074 12.5683352,8.90569692 12.6554561,10.2564016 L12.8310677,13.285702 L0.113200252,13.285702 Z" id="Shape"></path>
                                <path d="M12.4857028,8.571421 C11.1709394,8.571421 10.2202866,7.56795411 9.99451858,6.29940508 C9.96817236,6.17896521 9.92937847,5.99515605 9.89031015,5.79702385 C9.88064208,5.74779549 9.88064208,5.74779549 9.8710071,5.69783877 C9.80425917,5.3499867 9.7714188,5.14140344 9.7714188,4.9714236 C9.7714188,3.47628265 10.9905619,2.2571396 12.4857028,2.2571396 C13.9808437,2.2571396 15.1999868,3.47628265 15.1999868,4.9714236 C15.1999868,5.54136566 15.142385,6.11917374 14.9262532,6.52638168 C14.6187088,7.70116334 13.7100934,8.571421 12.4857028,8.571421 Z M13.1999868,4.9714236 C13.1999868,4.58085215 12.8762743,4.2571396 12.4857028,4.2571396 C12.0951313,4.2571396 11.7714188,4.58085215 11.7714188,4.9714236 C11.7714188,4.95764551 11.7986508,5.13060784 11.8351734,5.32094281 C11.8437743,5.36553816 11.8437743,5.36553816 11.8525273,5.4101078 C11.8884589,5.59233236 11.9246649,5.76387999 11.9558462,5.90991756 C12.0330637,6.34233585 12.2500918,6.571421 12.4857028,6.571421 C12.7213138,6.571421 12.9383419,6.34233585 13.0155594,5.90991756 L13.1627397,5.0857082 L13.1817219,5.0857082 C13.1929677,5.01451768 13.1999868,4.96838403 13.1999868,4.9714236 Z" id="Shape"></path>
                                <path d="M15.6886441,10.5338289 C15.6768174,10.3800811 15.5168665,10.2475504 15.19394,10.1927246 L12.3653714,9.84986778 L12.6060342,7.86440022 L15.4786704,8.21359688 C16.6656316,8.41142375 17.5902205,9.17751164 17.6846018,10.4103088 L17.8193858,13.285702 L13.4857018,13.285702 L13.4857018,11.285702 L15.7237007,11.285702 L15.6886441,10.5338289 Z" id="Shape"></path>
                            </g>
                        </g>
                    </g>
                </g>
            </g>
        </g>
    </g>
</svg>