<?xml version="1.0" encoding="UTF-8"?>
<svg width="16px" height="14px" viewBox="0 0 16 14" version="1.1" xmlns="http://www.w3.org/2000/svg" xmlns:xlink="http://www.w3.org/1999/xlink">
    <!-- Generator: Sketch 51 (57462) - http://www.bohemiancoding.com/sketch -->
    <title>Shape</title>
    <desc>Created with Sketch.</desc>
    <defs></defs>
    <g id="Page-1" stroke="none" stroke-width="1" fill="none" fill-rule="evenodd">
        <g id="My-profile" transform="translate(-808.000000, -769.000000)" fill="#000000">
            <g id="Group-16" transform="translate(266.000000, 160.000000)">
                <g id="Group-12" transform="translate(316.000000, 600.000000)">
                    <g id="Group-15" transform="translate(178.000000, 0.000000)">
                        <g id="Finance-03" transform="translate(48.000000, 9.000000)">
                            <path d="M1.06410894,3.68209532 C0.978233688,3.36178364 0.776883556,3.11725255 0.388896278,2.93929939 C0.0542299458,2.78580255 -0.0926399074,2.39006661 0.0608582725,2.05540028 C0.214355119,1.72073395 0.610091057,1.57386409 0.944757389,1.72736227 C1.69929663,2.07343526 2.25536608,2.70179796 2.40586593,3.58332375 C2.7978522,3.36583763 3.22445844,3.20314746 3.67533799,3.10559089 C3.79171654,1.55512911 5.08658658,0.333333667 6.66682167,0.333333667 C8.10858356,0.333333667 9.31279902,1.35037932 9.60116207,2.70616796 L11.362777,1.61121239 C11.963643,1.2377361 12.6668123,1.62444564 12.6668123,2.33368167 C12.6668123,2.33368167 12.6668123,3.71693362 12.6595385,3.83168683 C13.5112077,4.42365958 14.1449871,5.28908871 14.4547734,6.33332433 C14.6036196,6.33332423 14.9993195,6.33332433 14.9993195,6.33332433 C15.548789,6.33332433 16.0001419,6.77936055 16.0001419,7.33179 L16.0001419,10.0015207 C16.0001419,10.5507968 15.5508823,10.9999863 14.9993195,10.9999863 C14.9993195,10.9999863 13.3334779,10.9999863 13.2647079,10.9963819 C12.9732939,11.272716 12.6668119,11.4934947 12.6668119,11.4934947 L12.6668119,12.6658269 C12.6668119,13.2155364 12.2202823,13.6666492 11.6678029,13.6666492 L9.66582487,13.6666492 C9.11541208,13.6666492 8.66681587,13.217673 8.66681587,12.6658269 L8.66681587,12.3333182 L6.00015187,12.3333182 L6.00015187,12.6658269 C6.00015187,13.2155364 5.55362231,13.6666492 5.00114287,13.6666492 L2.99916487,13.6666492 C2.44875208,13.6666492 2.00015587,13.217673 2.00015587,12.6658269 C2.00015587,12.6658269 1.99348271,11.6050113 1.99348271,11.4924947 C0.760547273,10.6302189 0.000158033175,9.21435369 0.000158033175,7.66666523 C0.000158033175,6.58900298 0.365357668,5.59675397 0.978760388,4.80686476 C0.983082817,4.79350457 1.2042295,4.20476536 1.06410397,3.68210255 L1.06410894,3.68209532 Z M9.16163417,4.99999733 L9.336552,4.99999733 C9.70074497,4.99999733 10.0001513,5.2984737 10.0001513,5.66666333 C10.0001513,6.03741963 9.70304863,6.33332933 9.336552,6.33332933 L3.99709067,6.33332933 C3.6328977,6.33332933 3.33349133,6.03485297 3.33349133,5.66666333 C3.33349133,5.29590704 3.63059404,4.99999733 3.99709067,4.99999733 L4.17200849,4.99999733 C4.05288095,4.82202984 3.95229071,4.63060437 3.87300046,4.42848457 C2.41517525,4.78463755 1.33349633,6.09911957 1.33349633,7.66666133 C1.33349633,9.89558244 3.33349433,10.7468383 3.33349433,10.7468383 L3.33349433,12.3333233 L4.66682633,12.3333233 L4.66682633,10.9999913 L10.0001543,10.9999913 L9.99014458,12.3333233 L11.3334866,12.3366599 L11.3334866,10.7469582 C11.3334866,10.7469582 12.1685291,10.3385353 12.6836885,9.66665927 C13.4765911,9.66665927 14.6668166,9.67666902 14.6668166,9.67666902 L14.6668166,7.66666103 C14.6668166,7.66666103 13.7350542,7.66666103 13.3807145,7.66666103 C13.2647143,5.35367668 11.3334866,4.58648411 11.3334866,4.58648411 L11.3334866,3.2030755 L9.50904506,4.33333103 C9.41222349,4.57068346 9.29930993,4.79432724 9.16163874,4.99999703 L9.16163417,4.99999733 Z M11.333482,7.66666133 C10.9652924,7.66666133 10.666816,7.36818497 10.666816,6.99999533 C10.666816,6.6318057 10.9652924,6.33332933 11.333482,6.33332933 C11.7016716,6.33332933 12.000148,6.6318057 12.000148,6.99999533 C12.000148,7.36818497 11.7016713,7.66666133 11.333482,7.66666133 Z M6.66682,4.99999733 C7.58729241,4.99999733 8.333485,4.25380475 8.333485,3.33333233 C8.333485,2.41285992 7.58729241,1.66666733 6.66682,1.66666733 C5.74634759,1.66666733 5.000155,2.41285992 5.000155,3.33333233 C5.000155,4.25380475 5.74634759,4.99999733 6.66682,4.99999733 Z" id="Shape"></path>
                        </g>
                    </g>
                </g>
            </g>
        </g>
    </g>
</svg>