<?xml version="1.0" encoding="UTF-8"?>
<svg width="24px" height="30px" viewBox="0 0 24 30" version="1.1" xmlns="http://www.w3.org/2000/svg" xmlns:xlink="http://www.w3.org/1999/xlink">
    <!-- Generator: Sketch 52.1 (67048) - http://www.bohemiancoding.com/sketch -->
    <title>Group</title>
    <desc>Created with Sketch.</desc>
    <g id="Page-1" stroke="none" stroke-width="1" fill="none" fill-rule="evenodd">
        <g id="Download" transform="translate(-32.000000, -429.000000)" fill="#000000">
            <g id="Group" transform="translate(32.000000, 429.000000)">
                <path d="M18.4615385,16.40625 L5.53846154,16.40625 C4.77415385,16.40625 4.15384615,17.03625 4.15384615,17.8125 C4.15384615,18.58875 4.77415385,19.21875 5.53846154,19.21875 L18.4615385,19.21875 C19.2258462,19.21875 19.8461538,18.58875 19.8461538,17.8125 C19.8461538,17.03625 19.2258462,16.40625 18.4615385,16.40625 Z" id="Path"></path>
                <path d="M15.6923077,21.09375 L5.53846154,21.09375 C4.77415385,21.09375 4.15384615,21.72375 4.15384615,22.5 C4.15384615,23.27625 4.77415385,23.90625 5.53846154,23.90625 L15.6923077,23.90625 C16.4566154,23.90625 17.0769231,23.27625 17.0769231,22.5 C17.0769231,21.72375 16.4566154,21.09375 15.6923077,21.09375 Z" id="Path"></path>
                <path d="M0,3.28125 L0,26.71875 C0,28.528125 1.44923077,30 3.23076923,30 L20.7692308,30 C22.5507692,30 24,28.528125 24,26.71875 L24,9.5625 C24,9.538125 23.9944615,9.515625 23.9926154,9.49125 C24.0258462,9.08625 23.8864615,8.6775 23.5938462,8.3803125 L15.7476923,0.4115625 C15.492,0.151875 15.1504615,0.024375 14.8024615,0.015 C14.7535385,0.009375 14.7046154,0 14.6538462,0 L3.23076923,0 C1.44923077,0 0,1.471875 0,3.28125 Z M20.7692308,27.1875 L3.23076923,27.1875 C2.97692308,27.1875 2.76923077,26.9765625 2.76923077,26.71875 L2.76923077,3.28125 C2.76923077,3.0234375 2.97692308,2.8125 3.23076923,2.8125 L13.3846154,2.8125 L13.3846154,7.5 C13.3846154,9.309375 14.8338462,10.78125 16.6153846,10.78125 L21.2307692,10.78125 L21.2307692,26.71875 C21.2307692,26.9765625 21.0230769,27.1875 20.7692308,27.1875 Z M16.1538462,4.8009375 L19.2729231,7.96875 L16.6153846,7.96875 C16.3615385,7.96875 16.1538462,7.7578125 16.1538462,7.5 L16.1538462,4.8009375 Z" id="Shape" fill-rule="nonzero"></path>
            </g>
        </g>
    </g>
</svg>