<svg xmlns="http://www.w3.org/2000/svg" viewBox="0 0 41.53 41.53"><defs><style>.cls-1{fill:#00b4ef;}</style></defs><title>Asset 1</title><g id="Layer_2" data-name="Layer 2"><g id="Nav_layout" data-name="Nav layout"><path class="cls-1" d="M20.77,41.53a20.77,20.77,0,0,1-8.08-39.9A20.77,20.77,0,0,1,28.85,39.9,20.64,20.64,0,0,1,20.77,41.53Zm0-39.37A18.61,18.61,0,1,0,39.37,20.77,18.63,18.63,0,0,0,20.77,2.16Z"/><path class="cls-1" d="M27.11,29.57V15a2.3,2.3,0,1,0-1.59,0v6.78L16,17.32V12a2.3,2.3,0,1,0-1.59,0V26.6a2.3,2.3,0,1,0,1.59,0V19.2l9.5,4.4v6a2.3,2.3,0,1,0,1.59,0Z"/></g></g></svg>