<?xml version="1.0" encoding="UTF-8"?>
<svg width="54px" height="55px" viewBox="0 0 54 55" version="1.1" xmlns="http://www.w3.org/2000/svg" xmlns:xlink="http://www.w3.org/1999/xlink">
    <!-- Generator: Sketch 51 (57462) - http://www.bohemiancoding.com/sketch -->
    <title>Shape</title>
    <desc>Created with Sketch.</desc>
    <defs></defs>
    <g id="Page-1" stroke="none" stroke-width="1" fill="none" fill-rule="evenodd">
        <g id="Download" transform="translate(-369.000000, -283.000000)" fill="#FFFFFF" fill-rule="nonzero">
            <path d="M404.207677,310.501677 L413.89405,293.88142 L418.574566,310.501677 L413.893839,327.117951 L404.207677,310.501677 Z M399.486651,313.200752 L409.17429,329.818284 L392.302574,325.523329 L380.113905,313.200752 L399.486651,313.200752 Z M409.17218,291.180248 L399.486651,307.800505 L380.113905,307.800505 L392.302574,295.477091 L409.17218,291.180248 Z M423,304.845444 L417.090701,283 L395.034211,288.854565 L391.769201,294.5586 L385.144025,294.511428 L369,310.503145 L385.144025,326.491088 L385.144658,326.491088 L391.767091,326.442448 L395.036743,332.146483 L417.090701,338 L422.999789,316.158749 L419.643844,310.501887 L422.999789,304.845863 L423,304.845444 Z" id="Shape"></path>
        </g>
    </g>
</svg>