<?xml version="1.0" encoding="UTF-8"?>
<svg width="61px" height="61px" viewBox="0 0 61 61" version="1.1" xmlns="http://www.w3.org/2000/svg" xmlns:xlink="http://www.w3.org/1999/xlink">
    <!-- Generator: Sketch 51 (57462) - http://www.bohemiancoding.com/sketch -->
    <title>Group 4</title>
    <desc>Created with Sketch.</desc>
    <defs></defs>
    <g id="Page-1" stroke="none" stroke-width="1" fill="none" fill-rule="evenodd">
        <g id="Download" transform="translate(-660.000000, -281.000000)" fill="#FFFFFF" fill-rule="nonzero">
            <g id="Group-4" transform="translate(660.000000, 281.000000)">
                <path d="M9.08258727,24.571784 C9.08258727,24.571784 7.98568374,30.0529789 13.787017,36.6910444 C19.5888745,43.3288991 23.9417878,45.742674 28.6430725,47 C28.6430725,47 28.6390887,46.9975756 28.6348952,46.9951512 C28.6408709,46.9967323 28.6468466,46.9984189 28.6527174,47 C28.6527174,47 24.9596446,44.8373108 24.9596446,41.5690855 C24.9596446,40.6203989 25.1100849,39.9685458 25.3184997,39.5330986 C25.5950582,38.9546106 26.0330648,38.7579163 26.4263062,38.7560189 C26.7576942,38.7541215 26.9516416,38.8910486 27.3708824,39.0547498 L27.3708824,21.3539444 C27.3708824,21.3539444 27.4162766,21.0686006 27.6710291,20.7304465 C28.0379566,20.2441919 28.6146618,19.6507358 29.6980414,19.6447274 C31.5462028,19.6566387 33.8707409,21.7556605 33.8707409,21.7556605 L33.8707409,36.0875743 C33.8707409,37.5456002 32.8329651,39.3057301 31.733231,39.9096218 C31.733231,39.9096218 31.8830422,39.9191087 32.1256337,39.9190032 C32.8517308,39.9192141 34.4093904,39.8357296 35.2773312,39.1690138 C35.518455,39.4499304 39.4097734,43.8771345 46.3340097,45.2394485 C46.3340097,45.2394485 46.3327516,45.2380782 46.3306549,45.2355483 C46.3370499,45.2368133 46.3432353,45.2381836 46.3496303,45.2394485 C46.3496303,45.2394485 42.519746,40.7051482 41.3193689,38.4565502 C41.1060268,38.4437956 41.0748904,34.1905174 41.1104299,29.9405068 C41.1449211,25.8379643 41.24179,21.7377409 41.2979823,21.4540836 C41.2979823,21.4540836 41.7066347,20.8433402 42.747241,20.8380697 C43.9209897,20.8320614 45.8989385,21.596492 49,24.8739933 L48.9998952,24.8738879 L49,24.8739933 C49,24.8739933 48.9182276,24.6873129 48.7536344,24.3566429 C47.864936,22.5712147 44.5627983,16.5857402 38.6972002,13.106801 L38.6968857,13.1071173 C38.6966761,13.1070118 38.6964664,13.1069064 38.6963615,13.106801 L34.8918476,16.3421386 L34.7946643,16.4237256 L30.6452385,12 C30.6452385,12 30.6428273,12.0002108 30.6389483,12.0006325 L30.6384242,12 C30.6384242,12 21.1788238,12.8045916 17.2278534,18.5369777 C17.2278534,18.5369777 17.2352968,18.534237 17.2465143,18.5301261 C17.2448369,18.5324451 17.2431595,18.5346587 17.241587,18.5369777 C17.241587,18.5369777 17.8398884,18.3028629 18.5151399,18.2901084 C19.3063404,18.2755618 20.137169,18.5661762 20.137169,19.8953915 L20.137169,33.3720116 C20.137169,34.0602311 19.6659293,34.8322511 18.6315083,34.8292997 C17.7011899,34.8268752 16.3655738,34.1974744 14.5418393,32.316018 C10.690778,28.3436564 9.09149836,24.571784 9.09149836,24.571784 C9.09149836,24.571784 9.09045,24.576949 9.08877262,24.5861197 C9.08499851,24.5772653 9.08258727,24.571784 9.08258727,24.571784" id="path68" transform="translate(29.000000, 29.500000) scale(-1, 1) rotate(-180.000000) translate(-29.000000, -29.500000) "></path>
                <path d="M59.1845476,30.500052 C59.1845476,14.6580752 46.3420048,1.81555503 30.5,1.81555503 C14.6579952,1.81555503 1.8154524,14.6580752 1.8154524,30.500052 C1.8154524,46.3420289 14.6579952,59.184549 30.5,59.184549 C46.3420048,59.184549 59.1845476,46.3420289 59.1845476,30.500052 Z M51.8311068,9.16898402 C57.528866,14.8667331 60.6666667,22.4422003 60.6666667,30.5000532 C60.6666667,38.5577997 57.528866,46.1333733 51.8311068,51.8311224 C46.1333477,57.5288715 38.5578671,60.6666667 30.5,60.6666667 C22.4421329,60.6666667 14.8666523,57.5288715 9.16889318,51.8311224 C3.47113405,46.1333733 0.333333333,38.5577997 0.333333333,30.5000532 C0.333333333,22.4422003 3.47113405,14.8667331 9.16889318,9.16898402 C14.8666523,3.47123493 22.4421329,0.333333335 30.5,0.333333335 C38.5578671,0.333333335 46.1333477,3.47123493 51.8311068,9.16898402 Z" id="path72" transform="translate(30.500000, 30.500000) scale(-1, 1) rotate(-180.000000) translate(-30.500000, -30.500000) "></path>
            </g>
        </g>
    </g>
</svg>