<?xml version="1.0" encoding="UTF-8"?>
<svg width="19px" height="17px" viewBox="0 0 19 17" version="1.1" xmlns="http://www.w3.org/2000/svg" xmlns:xlink="http://www.w3.org/1999/xlink">
    <!-- Generator: Sketch 51 (57462) - http://www.bohemiancoding.com/sketch -->
    <title>Group 19</title>
    <desc>Created with Sketch.</desc>
    <defs></defs>
    <g id="Page-1" stroke="none" stroke-width="1" fill="none" fill-rule="evenodd">
        <g id="My-profile" transform="translate(-580.000000, -265.000000)" fill="#000000" fill-rule="nonzero">
            <g id="Group-16" transform="translate(266.000000, 160.000000)">
                <g id="Group-19" transform="translate(314.000000, 105.000000)">
                    <path d="M13.9973371,4.16902214 L13.9935261,4.227548 C13.9774466,4.3974569 13.9194758,4.75953114 13.8245304,5.30930706 C13.8177754,5.34838732 13.8177754,5.34838732 13.8110131,5.38738059 C13.7724445,5.6096016 13.7311835,5.84292993 13.6899301,6.07327832 C13.6459454,6.31789949 13.6459454,6.31789949 13.6377021,6.36239886 C13.2937198,8.45241342 11.925189,10 10.0011797,10 C8.08447741,10 6.71207226,8.46075323 6.36754261,6.41238389 C6.35637133,6.35099774 6.33711762,6.24431599 6.31232824,6.10543888 C6.27101912,5.87401352 6.22970165,5.63898731 6.19107207,5.41426644 C6.18279803,5.36607814 6.18279803,5.36607814 6.17453779,5.31773414 C6.08123403,4.77095196 6.02390295,4.40313506 6.00587235,4.18784961 C5.8815518,1.91081101 7.75634144,0 10.0011797,0 C12.2431428,0 14.0794013,1.87104809 13.9973371,4.16902214 Z M10.0011797,2 C8.88784532,2 7.94203119,2.96398658 8.00070486,4.04761759 C8.00961603,4.15119684 8.06478008,4.50511078 8.14604012,4.98131392 C8.15408654,5.02840656 8.15408654,5.02840656 8.16216154,5.07543566 C8.19999195,5.29550751 8.24059589,5.52647489 8.28120818,5.75399641 C8.30557164,5.89048743 8.32454792,5.99563199 8.33752348,6.0674239 C8.53798155,7.2589168 9.19873745,8 10.0011797,8 C10.805572,8 11.4637762,7.25567781 11.667137,6.02094944 C11.6778541,5.96206357 11.6778541,5.96206357 11.7212523,5.72070525 C11.7619203,5.49362545 11.8025807,5.26369383 11.8404721,5.04537443 C11.8470961,5.00717882 11.8470961,5.00717882 11.8537041,4.96894856 C11.9302366,4.52579149 11.9845582,4.1891914 11.9995128,4.06554189 C12.0229023,2.92194348 11.1078598,2 10.0011797,2 Z" id="Shape"></path>
                    <path d="M15.6204346,13.5902747 C15.5742863,13.2917525 15.2243121,13.0157972 14.6471419,12.8920241 L9.49992049,12.0144176 L4.39307459,12.8843167 C3.77045089,13.0169125 3.40321183,13.3028616 3.34904028,13.5761272 L3.1497283,15 L15.8357045,15 L15.6204346,13.5902747 Z M0.850271704,17 L1.00965537,15.8613728 L1.37685876,13.2477731 C1.61538786,12.013385 2.64489438,11.211764 4.01670711,10.9204759 L9.5,9.98556883 L9.6680755,10.0142259 L15.0235094,10.9281833 C16.3704338,11.2150283 17.4028488,12.0290897 17.5972364,13.2865457 L18.1642962,17 L0.850271704,17 Z" id="Shape"></path>
                </g>
            </g>
        </g>
    </g>
</svg>