<?xml version="1.0" encoding="UTF-8"?>
<svg width="40px" height="40px" viewBox="0 0 40 40" version="1.1" xmlns="http://www.w3.org/2000/svg" xmlns:xlink="http://www.w3.org/1999/xlink">
    <!-- Generator: Sketch 51 (57462) - http://www.bohemiancoding.com/sketch -->
    <title>Group 6</title>
    <desc>Created with Sketch.</desc>
    <defs></defs>
    <g id="Page-1" stroke="none" stroke-width="1" fill="none" fill-rule="evenodd">
        <g id="My-apps---Filters" transform="translate(-999.000000, -361.000000)">
            <g id="Group-4" transform="translate(265.000000, 160.000000)">
                <g id="Group-16" transform="translate(0.000000, 79.000000)">
                    <g id="Group-10">
                        <g id="CTA-/-Main">
                            <g id="Group-9" transform="translate(734.000000, 122.000000)">
                                <g id="Group-6">
                                    <rect id="Rectangle-6" stroke="#EDEDED" stroke-width="2" x="1" y="1" width="38" height="38" rx="19"></rect>
                                    <path d="M20.6666633,14.6665693 C20.6666633,14.296633 20.368187,14 19.9999973,14 C19.629241,14 19.3333313,14.2984327 19.3333313,14.6665693 L19.3333313,19.3333313 L14.6665693,19.3333313 C14.296633,19.3333313 14,19.6318077 14,19.9999973 C14,20.3707536 14.2984327,20.6666633 14.6665693,20.6666633 L19.3333313,20.6666633 L19.3333313,25.3334253 C19.3333313,25.7033616 19.6318077,25.9999947 19.9999973,25.9999947 C20.3707536,25.9999947 20.6666633,25.701562 20.6666633,25.3334253 L20.6666633,20.6666633 L25.3334253,20.6666633 C25.7033616,20.6666633 25.9999947,20.368187 25.9999947,19.9999973 C25.9999947,19.629241 25.701562,19.3333313 25.3334253,19.3333313 L20.6666633,19.3333313 L20.6666633,14.6665693 Z" id="Shape" fill="#53627C"></path>
                                </g>
                            </g>
                        </g>
                    </g>
                </g>
            </g>
        </g>
    </g>
</svg>