<?xml version="1.0" encoding="UTF-8"?>
<svg width="40px" height="40px" viewBox="0 0 40 40" version="1.1" xmlns="http://www.w3.org/2000/svg" xmlns:xlink="http://www.w3.org/1999/xlink">
    <!-- Generator: Sketch 51 (57462) - http://www.bohemiancoding.com/sketch -->
    <title>Group 13</title>
    <desc>Created with Sketch.</desc>
    <defs></defs>
    <g id="Symbols" stroke="none" stroke-width="1" fill="none" fill-rule="evenodd">
        <g id="UI-/-Apps-/-List-2---smoll-2" transform="translate(-780.000000, -20.000000)">
            <g id="UI-/-Apps-/-List-2">
                <g id="Group-13" transform="translate(780.000000, 20.000000)">
                    <g id="Group-5">
                        <g id="Group-4">
                            <g id="Group-6">
                                <rect id="Rectangle-6" stroke="#EDEDED" stroke-width="2" x="1" y="1" width="38" height="38" rx="19"></rect>
                                <path d="M15.333335,24.666673 L25.33334,24.666673 C25.7015302,24.666673 26.000007,24.9651498 26.000007,25.33334 C26.000007,25.7015302 25.7015302,26.000007 25.33334,26.000007 L14.666668,26.000007 C14.2984778,26.000007 14.000001,25.7015302 14.000001,25.33334 L14.000001,14.666668 C14.000001,14.2984778 14.2984778,14.000001 14.666668,14.000001 C15.0348582,14.000001 15.333335,14.2984778 15.333335,14.666668 L15.333335,24.666673 Z" id="Shape" fill="#53627C" fill-rule="nonzero"></path>
                                <path d="M17.8196962,21.7892716 C17.5678761,22.0578797 17.1459826,22.071489 16.8773758,21.819669 C16.6087676,21.5678489 16.5951583,21.1459553 16.8469784,20.8773485 L19.3469796,18.2106805 C19.5905197,17.9509044 19.9952166,17.9283764 20.2660867,18.1595168 L22.2392477,19.8432777 L24.810089,16.586876 C25.0382358,16.2978899 25.4574547,16.2485699 25.7464428,16.4767173 C26.035429,16.7048641 26.084749,17.124083 25.8566015,17.4130711 L22.8566,21.213073 C22.6222766,21.5098832 22.1882597,21.5525712 21.9005996,21.3071011 L19.8845652,19.5867535 L17.8197042,21.7892746 L17.8196962,21.7892716 Z" id="Shape" fill="#C9CED6" fill-rule="nonzero"></path>
                            </g>
                        </g>
                    </g>
                    <g id="Chart-Line-1" transform="translate(14.000000, 14.000000)"></g>
                </g>
            </g>
        </g>
    </g>
</svg>