<?xml version="1.0" encoding="UTF-8"?>
<svg width="24px" height="24px" viewBox="0 0 24 24" version="1.1" xmlns="http://www.w3.org/2000/svg" xmlns:xlink="http://www.w3.org/1999/xlink">
    <!-- Generator: Sketch 51 (57462) - http://www.bohemiancoding.com/sketch -->
    <title>Shape</title>
    <desc>Created with Sketch.</desc>
    <defs>
        <filter x="-2.9%" y="-1.8%" width="105.8%" height="105.9%" filterUnits="objectBoundingBox" id="filter-1">
            <feOffset dx="0" dy="3" in="SourceAlpha" result="shadowOffsetOuter1"></feOffset>
            <feGaussianBlur stdDeviation="2" in="shadowOffsetOuter1" result="shadowBlurOuter1"></feGaussianBlur>
            <feColorMatrix values="0 0 0 0 0.0392156863   0 0 0 0 0.121568627   0 0 0 0 0.266666667  0 0 0 0.1 0" type="matrix" in="shadowBlurOuter1" result="shadowMatrixOuter1"></feColorMatrix>
            <feMerge>
                <feMergeNode in="shadowMatrixOuter1"></feMergeNode>
                <feMergeNode in="SourceGraphic"></feMergeNode>
            </feMerge>
        </filter>
    </defs>
    <g id="Page-1" stroke="none" stroke-width="1" fill="none" fill-rule="evenodd">
        <g id="Download" transform="translate(-333.000000, -428.000000)" fill="#0A1F44">
            <g id="Group-4" transform="translate(266.000000, 160.000000)">
                <g id="Group-2" filter="url(#filter-1)" transform="translate(0.000000, 78.000000)">
                    <g id="download-icon" transform="translate(71.000000, 191.000000)">
                        <path d="M2,14.005 C2,14.003 14,14 14,14 C13.996,14 14,9 14,9 C14,8.448 14.448,8 15,8 C15.552,8 16,8.448 16,9 L16,14.005 C16,15.1 15.1,16 14,16 L2,16 C0.894,16 0,15.11 0,14.005 L0,9 C0,8.448 0.448,8 1,8 C1.552,8 2,8.448 2,9 L2,14.005 Z M7,6.747 L4.706,4.267 C4.316,3.872 3.683,3.872 3.292,4.267 C2.902,4.663 2.902,5.304 3.292,5.699 L6.94,9.547 C7.223,9.833 7.598,9.991 8,9.991 C8.4,9.991 8.778,9.833 9.06,9.547 L12.707,5.697 C13.097,5.303 13.097,4.662 12.707,4.267 C12.317,3.871 11.684,3.871 11.293,4.267 L9,6.744 L9,1 C9,0.448 8.553,1.77635684e-15 8,1.77635684e-15 C7.45,1.77635684e-15 7,0.448 7,1 L7,6.747 Z" id="Shape"></path>
                    </g>
                </g>
            </g>
        </g>
    </g>
</svg>