<?xml version="1.0" encoding="UTF-8"?>
<svg width="12px" height="14px" viewBox="0 0 12 14" version="1.1" xmlns="http://www.w3.org/2000/svg" xmlns:xlink="http://www.w3.org/1999/xlink">
    <!-- Generator: Sketch 51 (57462) - http://www.bohemiancoding.com/sketch -->
    <title>Globe</title>
    <desc>Created with Sketch.</desc>
    <defs></defs>
    <g id="Page-1" stroke="none" stroke-width="1" fill="none" fill-rule="evenodd">
        <g id="My-apps" transform="translate(-955.000000, -257.000000)">
            <g id="Group-4" transform="translate(266.000000, 160.000000)">
                <g id="Group-16" transform="translate(2.000000, 79.000000)">
                    <g id="Group-11" transform="translate(661.000000, 0.000000)">
                        <g id="Globe" transform="translate(24.000000, 17.000000)">
                            <polygon id="Shape" points="0 0 16.000008 0 16.000008 16.000008 0 16.000008"></polygon>
                            <path d="M8.666671,12.630073 L8.666671,13.33336 L9.333338,13.33336 C10.0697184,13.33336 10.666672,13.9303136 10.666672,14.666694 L5.333336,14.666694 C5.333336,13.9303136 5.93028963,13.33336 6.66667,13.33336 L7.333337,13.33336 L7.333337,12.6299063 C6.01915634,12.4841542 4.80551574,11.9109526 3.8624886,11.0122055 L3.15904825,11.7828192 C2.91081946,12.05475 2.48914791,12.073964 2.21721444,11.8257356 C1.94528364,11.5775068 1.92606963,11.1558352 2.17429809,10.8839018 L3.36627868,9.57810779 C3.64100949,9.27714431 4.11907906,9.29089898 4.37605252,9.60715967 C5.25749296,10.6919669 6.57548029,11.3333605 8.00000767,11.3333605 C10.5773356,11.3333605 12.6666767,9.24401949 12.6666767,6.66669153 C12.6666767,5.15648411 11.945063,3.76801675 10.747629,2.89418298 C10.4502122,2.67714154 10.3850549,2.26009066 10.6020963,1.96267585 C10.8191377,1.66525903 11.2361886,1.60010167 11.5336034,1.81714311 C13.0714309,2.939377 14.0000047,4.72607123 14.0000047,6.6666922 C14.0000047,9.75506041 11.6666368,12.2984483 8.66666867,12.6300752 L8.666671,12.630073 Z" id="Shape" fill="#0A1F44" fill-rule="nonzero"></path>
                            <path d="M10.8284054,3.83824192 C12.3905062,5.4003427 12.3905062,7.93300397 10.8284054,9.49509808 C9.26630463,11.0571989 6.73364337,11.0571989 5.17154925,9.49509808 C3.60944847,7.9329973 3.60944847,5.40033603 5.17154925,3.83824192 C6.73365003,2.27614114 9.2663113,2.27614114 10.8284054,3.83824192" id="Shape" fill="#C9CED6"></path>
                        </g>
                    </g>
                </g>
            </g>
        </g>
    </g>
</svg>