<?xml version="1.0" encoding="UTF-8"?>
<svg width="22px" height="24px" viewBox="0 0 22 24" version="1.1" xmlns="http://www.w3.org/2000/svg" xmlns:xlink="http://www.w3.org/1999/xlink">
    <!-- Generator: Sketch 51 (57462) - http://www.bohemiancoding.com/sketch -->
    <title>Shape</title>
    <desc>Created with Sketch.</desc>
    <defs></defs>
    <g id="Page-1" stroke="none" stroke-width="1" fill="none" fill-rule="evenodd">
        <g id="My-apps" transform="translate(-36.000000, -239.000000)" fill="#FFFFFF">
            <g id="Group-9" transform="translate(15.000000, 147.000000)">
                <g id="Group-13" transform="translate(0.000000, 92.000000)">
                    <g id="user-icon" transform="translate(21.000000, 0.000000)">
                        <path d="M18.5,7.5 C18.5,3.36 15.14,0 11,0 C6.86,0 3.5,3.36 3.5,7.5 C3.5,9.78 4.517,11.823 6.125,13.2 C2.78,14.955 0.5,18.459 0.5,22.5 C0.5,23.328 1.172,24 2,24 C2.828,24 3.5,23.328 3.5,22.5 C3.5,18.36 6.86,15 11,15 C15.14,15 18.5,18.36 18.5,22.5 C18.5,23.328 19.172,24 20,24 C20.828,24 21.5,23.328 21.5,22.5 C21.5,18.4605 19.22,14.955 15.875,13.2 C17.4845,11.82 18.5,9.78 18.5,7.5 Z M11,12 C8.5145,12 6.5,9.9855 6.5,7.5 C6.5,5.0145 8.5145,3 11,3 C13.4855,3 15.5,5.0145 15.5,7.5 C15.5,9.9855 13.4855,12 11,12 Z" id="Shape"></path>
                    </g>
                </g>
            </g>
        </g>
    </g>
</svg>