<?xml version="1.0" encoding="UTF-8"?>
<svg width="16px" height="12px" viewBox="0 0 16 12" version="1.1" xmlns="http://www.w3.org/2000/svg" xmlns:xlink="http://www.w3.org/1999/xlink">
    <!-- Generator: Sketch 51 (57462) - http://www.bohemiancoding.com/sketch -->
    <title>Shape</title>
    <desc>Created with Sketch.</desc>
    <defs></defs>
    <g id="Page-1" stroke="none" stroke-width="1" fill="none" fill-rule="evenodd">
        <g id="My-profile" transform="translate(-582.000000, -697.000000)" fill="#000000">
            <g id="Group-16" transform="translate(266.000000, 160.000000)">
                <g id="Finance-17" transform="translate(316.000000, 537.000000)">
                    <path d="M10.666656,1.999996 L1.333332,1.999996 L1.333332,2.666662 L10.666656,2.666662 L10.666656,1.999996 Z M1.333332,4.66666 L1.333332,7.333324 L10.666656,7.333324 L10.666656,4.66666 L1.333332,4.66666 Z M11.999988,5.333326 L14.666652,5.333326 L14.666652,4.66666 L11.999988,4.66666 L11.999988,5.333326 Z M5.333328,8.666656 L5.333328,9.999988 L14.666652,9.999988 L14.666652,7.333324 L11.999988,7.333324 C11.999988,8.0711866 11.4049053,8.666656 10.6699293,8.666656 L5.33333467,8.666656 L5.333328,8.666656 Z M11.999988,3.333328 L14.6699253,3.333328 C15.4044946,3.333328 15.999984,3.92809074 15.999984,4.66334334 L15.999984,10.0033047 C15.999984,10.7378539 15.4049013,11.33332 14.6699253,11.33332 L5.330068,11.33332 C4.59549874,11.33332 4.00000933,10.7385573 4.00000933,10.0033047 L4.00000933,8.666656 L1.330072,8.666656 C0.595502738,8.666656 1.333332e-05,8.07189326 1.333332e-05,7.33664066 L1.333332e-05,1.99667934 C1.333332e-05,1.26213007 0.595096072,0.666664 1.330072,0.666664 L10.6699293,0.666664 C11.4044986,0.666664 11.999988,1.26142674 11.999988,1.99667934 L11.999988,3.333328 Z" id="Shape"></path>
                </g>
            </g>
        </g>
    </g>
</svg>