<?xml version="1.0" encoding="UTF-8"?>
<svg width="40px" height="40px" viewBox="0 0 40 40" version="1.1" xmlns="http://www.w3.org/2000/svg" xmlns:xlink="http://www.w3.org/1999/xlink">
    <!-- Generator: Sketch 51 (57462) - http://www.bohemiancoding.com/sketch -->
    <title>Group 3</title>
    <desc>Created with Sketch.</desc>
    <defs></defs>
    <g id="Symbols" stroke="none" stroke-width="1" fill="none" fill-rule="evenodd">
        <g id="UI-/-Apps-/-List-2---smoll-2" transform="translate(-684.000000, -20.000000)">
            <g id="UI-/-Apps-/-List-2">
                <g id="Group-13" transform="translate(684.000000, 20.000000)">
                    <g id="Group">
                        <g id="Group-2">
                            <g id="Group-3">
                                <rect id="Rectangle-6" stroke="#EDEDED" stroke-width="2" x="1" y="1" width="38" height="38" rx="19"></rect>
                                <path d="M26.3915733,17.4651038 L25.5144993,15.8863706 C25.4028717,15.6790623 25.1636697,15.5833815 24.9404145,15.6631155 L23.6965642,16.093679 C23.0267986,15.4398603 22.2135119,14.9614563 21.3204911,14.7063075 L21.097236,13.39867 C21.0653424,13.159468 20.858034,13 20.618832,13 L18.8168437,13 C18.5776417,13 18.3703333,13.159468 18.3384397,13.39867 L18.1311313,14.7063075 C17.2381106,14.9774031 16.4248238,15.4558071 15.7550582,16.1096258 L14.5112079,15.6631155 C14.2879527,15.5833815 14.0487507,15.6790623 13.9371231,15.8863706 L13.0600492,17.4651038 C12.9484216,17.6724121 12.996262,17.9275609 13.1876236,18.0710821 L14.2241655,18.9003157 C14.0487507,19.7136024 14.0487507,20.542836 14.2241655,21.3561227 L13.1716768,22.1853563 C12.996262,22.3288775 12.9484216,22.5840263 13.0600492,22.7913347 L13.9371231,24.3700678 C14.0487507,24.5773762 14.2879527,24.673057 14.5112079,24.593323 L15.7550582,24.1627594 C16.4248238,24.8165782 17.2381106,25.2949821 18.1311313,25.5501309 L18.3543865,26.8577684 C18.3862801,27.0969704 18.5935885,27.2564384 18.8327905,27.2564384 L20.6347788,27.2564384 C20.8739808,27.2564384 21.0812892,27.0969704 21.1131828,26.8577684 L21.3204911,25.5501309 C22.2135119,25.2790353 23.0267986,24.8006314 23.6965642,24.1468126 L24.9404145,24.593323 C25.1636697,24.673057 25.4028717,24.5773762 25.5144993,24.3700678 L26.3915733,22.7913347 C26.5032009,22.5840263 26.4553605,22.3288775 26.2799457,22.1853563 L25.2434037,21.3561227 C25.4188185,20.542836 25.4188185,19.7136024 25.2434037,18.9003157 L26.2799457,18.0710821 C26.4553605,17.9275609 26.5032009,17.6724121 26.3915733,17.4651038 Z M19.7258112,22.3029555 C18.5200168,22.3029555 17.5510749,21.3340136 17.5510749,20.1282192 C17.5510749,18.9224248 18.5200168,17.9534829 19.7258112,17.9534829 C20.9316056,17.9534829 21.9005475,18.9224248 21.9005475,20.1282192 C21.9005475,20.1282192 21.9005475,20.1282192 21.9005475,20.1282192 C21.8897815,21.3232476 20.9208396,22.2921895 19.7258112,22.3029555 Z" id="Shape" fill="#53627C" fill-rule="nonzero"></path>
                            </g>
                        </g>
                    </g>
                </g>
            </g>
        </g>
    </g>
</svg>