<?xml version="1.0" encoding="UTF-8"?>
<svg width="18px" height="12px" viewBox="0 0 18 12" version="1.1" xmlns="http://www.w3.org/2000/svg" xmlns:xlink="http://www.w3.org/1999/xlink">
    <!-- Generator: Sketch 51 (57462) - http://www.bohemiancoding.com/sketch -->
    <title>Group 17</title>
    <desc>Created with Sketch.</desc>
    <defs></defs>
    <g id="Page-1" stroke="none" stroke-width="1" fill="none" fill-rule="evenodd">
        <g id="My-profile" transform="translate(-841.000000, -587.000000)" fill="#14B9BE" fill-rule="nonzero">
            <g id="Group-16" transform="translate(266.000000, 160.000000)">
                <g id="View" transform="translate(575.000000, 427.000000)">
                    <g id="Group-17">
                        <path d="M15.3159015,5.93436027 C14.8614481,5.42195642 14.3443473,4.90888689 13.7772506,4.43204882 C12.2063736,3.1111913 10.575643,2.33333 8.999992,2.33333 C7.42434105,2.33333 5.7936104,3.1111913 4.22273342,4.43204882 C3.65563671,4.90888689 3.13853592,5.42195642 2.68408251,5.93436027 C2.66433108,5.95663034 2.64503117,5.97851242 2.62618719,5.999992 C2.64503117,6.02147158 2.66433108,6.04335366 2.68408251,6.06562373 C3.13853592,6.57802758 3.65563671,7.09109711 4.22273342,7.56793518 C5.7936104,8.8887927 7.42434105,9.666654 8.999992,9.666654 C10.575643,9.666654 12.2063736,8.8887927 13.7772506,7.56793518 C14.3443473,7.09109711 14.8614481,6.57802758 15.3159015,6.06562373 C15.3356529,6.04335366 15.3549528,6.02147158 15.3737968,5.999992 C15.3549528,5.97851242 15.3356529,5.95663034 15.3159015,5.93436027 Z M16.8121934,7.39269214 C16.2965957,7.9740372 15.7113538,8.55471658 15.0643892,9.09871082 C13.1665197,10.694517 11.128504,11.666654 8.999992,11.666654 C6.87147999,11.666654 4.8334643,10.694517 2.93559475,9.09871082 C2.28863017,8.55471658 1.70338832,7.9740372 1.18779062,7.39269214 C0.875411895,7.04047989 0.652314127,6.76178542 0.527843542,6.5926021 L0.0918518241,5.999992 L0.527843542,5.4073819 C0.652314127,5.23819858 0.875411895,4.95950411 1.18779062,4.60729186 C1.70338832,4.0259468 2.28863017,3.44526742 2.93559475,2.90127318 C4.8334643,1.30546695 6.87147999,0.33333 8.999992,0.33333 C11.128504,0.33333 13.1665197,1.30546695 15.0643892,2.90127318 C15.7113538,3.44526742 16.2965957,4.0259468 16.8121934,4.60729186 C17.1245721,4.95950411 17.3476699,5.23819858 17.4721405,5.4073819 L17.9081322,5.999992 L17.4721405,6.5926021 C17.3476699,6.76178542 17.1245721,7.04047989 16.8121934,7.39269214 Z" id="Shape"></path>
                        <path d="M11.3569971,3.64298687 C12.6587438,4.94473358 12.6587438,7.05528042 11.3569971,8.35702713 C10.0552504,9.65877385 7.94470358,9.65877385 6.64295687,8.35702713 C5.34121015,7.05528042 5.34121015,4.94473358 6.64295687,3.64298687 C7.94470358,2.34124015 10.0552504,2.34124015 11.3569971,3.64298687 L10.6498904,4.35009365 L11.3569971,3.64298687 Z M9.94278357,5.05720043 C9.42208544,4.5365023 8.57786856,4.5365023 8.05717043,5.05720043 C7.5364723,5.57789856 7.5364723,6.42211544 8.05717043,6.94281357 C8.57786856,7.4635117 9.42208544,7.4635117 9.94278357,6.94281357 C10.4634817,6.42211544 10.4634817,5.57789856 9.94278357,5.05720043 L10.6498904,4.35009365 L9.94278357,5.05720043 Z" id="Shape"></path>
                    </g>
                </g>
            </g>
        </g>
    </g>
</svg>